<svg fill="none" height="73" viewBox="0 0 399 73" width="399" xmlns="http://www.w3.org/2000/svg">
<path d="M255.857 8.89268L256.214 8.40383L256.213 3.75737H210.639V9.03539H249.102L208.711 62.7228L208.345 63.2141V67.9548H256.893V62.6703H215.458L255.857 8.89268Z" fill="url(#paint0_linear_1_27)"></path>
<path d="M255.857 8.89268L256.214 8.40383L256.213 3.75737H210.639V9.03539H249.102L208.711 62.7228L208.345 63.2141V67.9548H256.893V62.6703H215.458L255.857 8.89268Z" fill="url(#paint1_linear_1_27)"></path>
<path d="M280.153 19.6587H280.146C267.202 19.6587 258.505 29.6201 258.505 44.4461C258.505 59.5018 266.898 69.2311 279.888 69.2311C292.879 69.2311 301.36 59.6347 301.36 44.7824C301.36 29.5208 293.036 19.6587 280.153 19.6587ZM295.912 44.7824C295.912 56.4285 289.656 63.9539 279.975 63.9539C270.189 63.9539 263.867 56.2612 263.867 44.3551C263.867 32.7393 270.376 24.9334 280.061 24.9309C289.69 24.9309 295.912 32.7229 295.912 44.7824Z" fill="url(#paint2_linear_1_27)"></path>
<path d="M280.153 19.6587H280.146C267.202 19.6587 258.505 29.6201 258.505 44.4461C258.505 59.5018 266.898 69.2311 279.888 69.2311C292.879 69.2311 301.36 59.6347 301.36 44.7824C301.36 29.5208 293.036 19.6587 280.153 19.6587ZM295.912 44.7824C295.912 56.4285 289.656 63.9539 279.975 63.9539C270.189 63.9539 263.867 56.2612 263.867 44.3551C263.867 32.7393 270.376 24.9334 280.061 24.9309C289.69 24.9309 295.912 32.7229 295.912 44.7824Z" fill="url(#paint3_linear_1_27)"></path>
<path d="M328.435 19.7415C322.782 19.7415 317.595 22.1677 314.114 26.3409V20.7627H308.751V67.9466H314.198V41.974C314.198 33.7761 317.982 25.0163 328.606 25.0163C336.585 25.0163 340.629 29.3757 340.629 37.9739V67.9458H346.076V37.3817C346.079 31.9929 344.454 27.5179 341.378 24.4421C338.302 21.3663 333.826 19.7415 328.435 19.7415Z" fill="url(#paint4_linear_1_27)"></path>
<path d="M328.435 19.7415C322.782 19.7415 317.595 22.1677 314.114 26.3409V20.7627H308.751V67.9466H314.198V41.974C314.198 33.7761 317.982 25.0163 328.606 25.0163C336.585 25.0163 340.629 29.3757 340.629 37.9739V67.9458H346.076V37.3817C346.079 31.9929 344.454 27.5179 341.378 24.4421C338.302 21.3663 333.826 19.7415 328.435 19.7415Z" fill="url(#paint5_linear_1_27)"></path>
<path d="M394.711 42.8278C394.711 36.9347 392.946 31.3966 389.739 27.2333C385.999 22.3867 380.648 19.8244 374.262 19.8244C361.52 19.8244 352.959 29.8866 352.959 44.8628C352.959 59.5371 361.485 69.3959 374.174 69.3959C384.209 69.3959 391.788 63.0968 393.951 52.9566L394.164 51.9641L388.673 51.969L388.526 52.6031C387.186 58.3798 382.23 64.209 374.174 64.209C363.262 64.209 358.924 55.1424 358.454 46.3588H394.71V42.8262L394.711 42.8278ZM389.277 41.0816H358.546C359.473 32.9878 364.594 25.1032 374.263 25.1032C384.52 25.1032 388.721 33.5226 389.277 41.0816Z" fill="url(#paint6_linear_1_27)"></path>
<path d="M394.711 42.8278C394.711 36.9347 392.946 31.3966 389.739 27.2333C385.999 22.3867 380.648 19.8244 374.262 19.8244C361.52 19.8244 352.959 29.8866 352.959 44.8628C352.959 59.5371 361.485 69.3959 374.174 69.3959C384.209 69.3959 391.788 63.0968 393.951 52.9566L394.164 51.9641L388.673 51.969L388.526 52.6031C387.186 58.3798 382.23 64.209 374.174 64.209C363.262 64.209 358.924 55.1424 358.454 46.3588H394.71V42.8262L394.711 42.8278ZM389.277 41.0816H358.546C359.473 32.9878 364.594 25.1032 374.263 25.1032C384.52 25.1032 388.721 33.5226 389.277 41.0816Z" fill="url(#paint7_linear_1_27)"></path>
<path d="M30.1055 3.75737H2.77051V67.9467H8.13219V40.3189H29.5084C41.622 40.3189 49.4492 33.1273 49.4492 21.9987C49.4492 10.5766 42.2183 3.75737 30.1055 3.75737ZM44.0055 22.084C44.0055 30.1983 38.4281 35.0425 29.0868 35.0425H8.13219V9.03703H28.917C39.0695 9.03703 44.0055 13.3046 44.0055 22.084Z" fill="#fff"></path>
<path d="M76.3514 20.6774H76.303C69.2255 20.8636 64.2665 22.9682 60.9291 27.2554V20.7619H55.5584V67.9507H60.9291V46.2268C60.9291 40.6289 61.0808 39.1755 61.9445 36.5033C64.2911 29.2288 68.4766 26.1965 76.3883 26.0366L78.1838 26.0022V24.2075C78.187 22.4613 78.1879 21.6641 77.6449 21.1203C77.2528 20.7274 76.7484 20.6774 76.3514 20.6774Z" fill="#fff"></path>
<path d="M86.6023 3.75737H81.1553V16.0924H86.6023V3.75737Z" fill="#fff"></path>
<path d="M86.6023 20.7627H81.1553V67.9548H86.6023V20.7627Z" fill="#fff"></path>
<path d="M141.309 19.6546C135.223 19.6546 130.465 22.2136 127.454 27.0791C124.858 22.3317 120.236 19.7407 114.275 19.7407C109.027 19.7407 104.743 21.6559 101.74 25.3116V20.7619H96.377V67.9458H101.739V40.6986C101.739 31.3179 106.674 25.0163 114.017 25.0163C120.758 25.0163 124.175 28.9205 124.175 36.6197V67.9508H129.537V37.7245C129.537 30.0064 134.126 25.0196 141.227 25.0196C147.928 25.0196 151.469 28.7671 151.469 35.8569V67.9532H156.916V36.4483C156.91 25.6175 151.368 19.653 141.309 19.653L141.309 19.6546Z" fill="#fff"></path>
<path d="M205.796 42.8229C205.796 36.9248 204.032 31.3868 200.828 27.2292C197.088 22.3826 191.735 19.8203 185.347 19.8203C172.607 19.8203 164.048 29.8825 164.048 44.8587C164.048 59.533 172.574 69.3918 185.262 69.3918C195.271 69.3918 202.844 63.1189 205.028 53.0205L205.243 52.0256L199.751 52.0347L199.602 52.6654C198.249 58.4093 193.291 64.2057 185.263 64.2057C174.358 64.2057 170.016 55.1383 169.542 46.3547H205.798V42.8237L205.796 42.8229ZM200.367 41.0816H169.634C170.564 32.9878 175.686 25.1032 185.347 25.1032C195.604 25.1032 199.808 33.5226 200.367 41.0816Z" fill="#fff"></path>
<defs>
<linearGradient gradientUnits="userSpaceOnUse" id="paint0_linear_1_27" x1="353.554" x2="396.267" y1="70.2298" y2="66.9121">
<stop stop-color="#00A6EB"></stop>
<stop offset="1" stop-color="#00A6EB"></stop>
</linearGradient>
<linearGradient gradientUnits="userSpaceOnUse" id="paint1_linear_1_27" x1="397.5" x2="221.5" y1="13.5" y2="69">
<stop stop-color="#7DD9FF"></stop>
<stop offset="1" stop-color="#00A6EB"></stop>
</linearGradient>
<linearGradient gradientUnits="userSpaceOnUse" id="paint2_linear_1_27" x1="353.554" x2="396.267" y1="70.2298" y2="66.9121">
<stop stop-color="#00A6EB"></stop>
<stop offset="1" stop-color="#00A6EB"></stop>
</linearGradient>
<linearGradient gradientUnits="userSpaceOnUse" id="paint3_linear_1_27" x1="397.5" x2="221.5" y1="13.5" y2="69">
<stop stop-color="#7DD9FF"></stop>
<stop offset="1" stop-color="#00A6EB"></stop>
</linearGradient>
<linearGradient gradientUnits="userSpaceOnUse" id="paint4_linear_1_27" x1="353.554" x2="396.267" y1="70.2298" y2="66.9121">
<stop stop-color="#00A6EB"></stop>
<stop offset="1" stop-color="#00A6EB"></stop>
</linearGradient>
<linearGradient gradientUnits="userSpaceOnUse" id="paint5_linear_1_27" x1="397.5" x2="221.5" y1="13.5" y2="69">
<stop stop-color="#7DD9FF"></stop>
<stop offset="1" stop-color="#00A6EB"></stop>
</linearGradient>
<linearGradient gradientUnits="userSpaceOnUse" id="paint6_linear_1_27" x1="353.554" x2="396.267" y1="70.2298" y2="66.9121">
<stop stop-color="#00A6EB"></stop>
<stop offset="1" stop-color="#00A6EB"></stop>
</linearGradient>
<linearGradient gradientUnits="userSpaceOnUse" id="paint7_linear_1_27" x1="397.5" x2="221.5" y1="13.5" y2="69">
<stop stop-color="#7DD9FF"></stop>
<stop offset="1" stop-color="#00A6EB"></stop>
</linearGradient>
</defs>
</svg>